<?xml version="1.0" encoding="UTF-8"?>
<svg width="24px"  height="24px"  viewBox="0 0 24 24" version="1.1" xmlns="http://www.w3.org/2000/svg" xmlns:xlink="http://www.w3.org/1999/xlink">
    <title>Iconly/Light-Outline/Delete</title>
    <g id="Iconly/Light-Outline/Delete" stroke="none" stroke-width="1" fill="none" fill-rule="evenodd">
        <g id="Delete" transform="translate(3.000000, 2.000000)" fill="#ff4221" >
            <path d="M16.3846,6.72 C16.7976,6.754 17.1056,7.115 17.0726,7.528 C17.0666,7.596 16.5246,14.307 16.2126,17.122 C16.0186,18.869 14.8646,19.932 13.1226,19.964 C11.7896,19.987 10.5036,20 9.2466,20 C7.8916,20 6.5706,19.985 5.2636,19.958 C3.5916,19.925 2.4346,18.841 2.2456,17.129 C1.9306,14.289 1.3916,7.595 1.3866,7.528 C1.3526,7.115 1.6606,6.753 2.0736,6.72 C2.4806,6.709 2.8486,6.995 2.8816,7.407 C2.88479149,7.45040426 3.10514006,10.1840303 3.34526171,12.888712 L3.3934912,13.4284567 C3.5144316,14.7728253 3.63702553,16.0646383 3.7366,16.964 C3.8436,17.937 4.3686,18.439 5.2946,18.458 C7.7946,18.511 10.3456,18.514 13.0956,18.464 C14.0796,18.445 14.6116,17.953 14.7216,16.957 C15.0316,14.163 15.5716,7.475 15.5776,7.407 C15.6106,6.995 15.9756,6.707 16.3846,6.72 Z M11.3454,0.0003 C12.2634,0.0003 13.0704,0.6193 13.3074,1.5063 L13.5614,2.7673 C13.6434814,3.18067391 14.0062454,3.48255718 14.426277,3.48918855 L17.708,3.4893 C18.122,3.4893 18.458,3.8253 18.458,4.2393 C18.458,4.6533 18.122,4.9893 17.708,4.9893 L14.455585,4.98914909 C14.4505353,4.98924954 14.4454735,4.9893 14.4404,4.9893 L14.416,4.9883 L4.04161866,4.98917751 C4.03355343,4.98925911 4.02548047,4.9893 4.0174,4.9893 L4.002,4.9883 L0.75,4.9893 C0.336,4.9893 0,4.6533 0,4.2393 C0,3.8253 0.336,3.4893 0.75,3.4893 L4.031,3.4883 L4.13202059,3.48190556 C4.50830909,3.43308512 4.82103636,3.1473 4.8974,2.7673 L5.1404,1.5513 C5.3874,0.6193 6.1944,0.0003 7.1124,0.0003 L11.3454,0.0003 Z M11.3454,1.5003 L7.1124,1.5003 C6.8724,1.5003 6.6614,1.6613 6.6004,1.8923 L6.3674,3.0623 C6.33778734,3.2104961 6.29466721,3.35331391 6.23948439,3.48956855 L12.2186152,3.48956855 C12.1633631,3.35331391 12.1201455,3.2104961 12.0904,3.0623 L11.8474,1.8463 C11.7964,1.6613 11.5854,1.5003 11.3454,1.5003 Z" id="Combined-Shape"></path>
        </g>
    </g>
</svg>