<?xml version="1.0" encoding="UTF-8"?>
<svg width="24px"  height="24px"  viewBox="0 0 24 24" version="1.1" xmlns="http://www.w3.org/2000/svg" xmlns:xlink="http://www.w3.org/1999/xlink">
    <title>Iconly/Light-Outline/Logout</title>
    <defs>
        <polygon id="path-1" points="0.10964744 0.33524936 4.537 0.33524936 4.537 7.666 0.10964744 7.666"></polygon>
    </defs>
    <g id="Iconly/Light-Outline/Logout" stroke="none" stroke-width="1" fill="none" fill-rule="evenodd">
        <g id="Logout" transform="translate(2.000000, 2.000000)">
            <path d="M9.3083,0 C11.7543,0 13.7443,1.99 13.7443,4.436 L13.7443,5.368 C13.7443,5.782 13.4083,6.118 12.9943,6.118 C12.5803,6.118 12.2443,5.782 12.2443,5.368 L12.2443,4.436 C12.2443,2.816 10.9273,1.5 9.3083,1.5 L4.4333,1.5 C2.8163,1.5 1.5003,2.816 1.5003,4.436 L1.5003,15.565 C1.5003,17.184 2.8163,18.5 4.4333,18.5 L9.3193,18.5 C10.9313,18.5 12.2443,17.188 12.2443,15.576 L12.2443,14.633 C12.2443,14.219 12.5803,13.883 12.9943,13.883 C13.4083,13.883 13.7443,14.219 13.7443,14.633 L13.7443,15.576 C13.7443,18.016 11.7583,20 9.3193,20 L4.4333,20 C1.9893,20 0.0003,18.011 0.0003,15.565 L0.0003,4.436 C0.0003,1.99 1.9893,0 4.4333,0 L9.3083,0 Z M17.3884,6.554 L20.3164,9.469 C20.3425203,9.49492031 20.3659115,9.52186976 20.387318,9.55039275 L20.3164,9.469 C20.3518297,9.50393069 20.3833375,9.54209853 20.4106748,9.58280455 C20.4227077,9.6012464 20.4343142,9.62031535 20.4450703,9.63991619 C20.4537987,9.65523007 20.4618316,9.67121581 20.4692784,9.68746498 C20.4755915,9.70181939 20.4816509,9.71618462 20.4872676,9.73076915 C20.4948074,9.74977474 20.5014094,9.76931306 20.5072001,9.78910914 C20.5115634,9.80470095 20.5155749,9.82025822 20.5190909,9.8360017 C20.5235582,9.8551018 20.5270758,9.87431713 20.5298429,9.89368117 C20.5314091,9.90627242 20.5329392,9.91946559 20.534122,9.93275816 C20.5364114,9.95556556 20.5374,9.97773898 20.5374,10 L20.5323,10.062 L20.5302493,10.1017257 C20.5300188,10.103423 20.5297827,10.1051185 20.5295408,10.1068122 L20.5374,10 C20.5374,10.0555105 20.5312529,10.1104764 20.5193059,10.1639208 C20.5155749,10.1797418 20.5115634,10.195299 20.5070738,10.2106529 C20.5014094,10.2306869 20.4948074,10.2502253 20.4874127,10.2694533 C20.4816509,10.2838154 20.4755915,10.2981806 20.4691057,10.31231 C20.4618316,10.3287842 20.4537987,10.3447699 20.4451921,10.360458 C20.4343142,10.3796847 20.4227077,10.3987536 20.4103006,10.4172409 C20.403281,10.428205 20.3955821,10.4390289 20.3875831,10.4496533 C20.3637735,10.480979 20.3378281,10.5104472 20.3097553,10.5377382 L17.3884,13.447 C17.2424,13.593 17.0504,13.666 16.8594,13.666 C16.6674,13.666 16.4744,13.593 16.3284,13.445 C16.0364,13.151 16.0374,12.677 16.3304,12.385 L17.9703,10.75 L7.7461,10.75 C7.3321,10.75 6.9961,10.414 6.9961,10 C6.9961,9.586 7.3321,9.25 7.7461,9.25 L17.9723,9.25 L16.3304,7.616 C16.0374,7.324 16.0354,6.85 16.3284,6.556 C16.6204,6.262 17.0944,6.262 17.3884,6.554 Z" id="Combined-Shape" fill="#000000" ></path>
            <g id="Group-8" transform="translate(16.000000, 6.000000)">
                <mask id="mask-2" fill="white">
                    <use xlink:href="#path-1"></use>
                </mask>
                <g id="Clip-7"></g>
            </g>
        </g>
    </g>
</svg>